<svg xmlns="http://www.w3.org/2000/svg" xmlns:xlink="http://www.w3.org/1999/xlink" width="160" zoomAndPan="magnify" viewBox="0 0 120 74.999997" height="100" preserveAspectRatio="xMidYMid meet" version="1.0"><defs><g/><clipPath id="a788b91988"><path d="M 47 8.199219 L 57 8.199219 L 57 29.902344 L 47 29.902344 Z M 47 8.199219 " clip-rule="nonzero"/></clipPath><clipPath id="9de95c5487"><path d="M 56 8.199219 L 66 8.199219 L 66 29.902344 L 56 29.902344 Z M 56 8.199219 " clip-rule="nonzero"/></clipPath><clipPath id="cb2f9115a3"><path d="M 34.679688 11 L 52 11 L 52 29.902344 L 34.679688 29.902344 Z M 34.679688 11 " clip-rule="nonzero"/></clipPath><clipPath id="fa60a9d5c0"><path d="M 61 11 L 78.335938 11 L 78.335938 29.902344 L 61 29.902344 Z M 61 11 " clip-rule="nonzero"/></clipPath></defs><g fill="#bc9c22" fill-opacity="1"><g transform="translate(32.02196, 64.511973)"><g><path d="M 6.414062 -4.328125 C 6.414062 -5.65625 5.242188 -6.59375 3.128906 -6.59375 L 0.78125 -6.59375 C 0.585938 -6.59375 0.496094 -6.511719 0.496094 -6.375 C 0.496094 -6.253906 0.550781 -6.171875 0.691406 -6.128906 L 0.960938 -6.066406 C 1.117188 -6.023438 1.195312 -5.933594 1.195312 -5.792969 L 1.195312 -0.800781 C 1.195312 -0.660156 1.117188 -0.570312 0.960938 -0.527344 L 0.691406 -0.464844 C 0.550781 -0.425781 0.496094 -0.339844 0.496094 -0.222656 C 0.496094 -0.0859375 0.585938 0 0.78125 0 L 3.097656 0 C 3.300781 0 3.390625 -0.0859375 3.390625 -0.222656 C 3.390625 -0.339844 3.34375 -0.40625 3.1875 -0.464844 L 2.867188 -0.527344 C 2.722656 -0.574219 2.65625 -0.660156 2.65625 -0.800781 L 2.65625 -2.542969 C 2.953125 -2.445312 3.308594 -2.386719 3.699219 -2.386719 C 3.734375 -2.386719 3.773438 -2.386719 3.8125 -2.386719 L 4.777344 -0.734375 C 4.867188 -0.574219 4.851562 -0.5 4.71875 -0.4375 L 4.578125 -0.40625 C 4.484375 -0.359375 4.441406 -0.300781 4.441406 -0.222656 C 4.441406 -0.078125 4.535156 0 4.722656 0 L 6.730469 0 C 6.933594 0 7.027344 -0.0859375 7.027344 -0.222656 C 7.027344 -0.339844 6.972656 -0.410156 6.769531 -0.472656 C 6.5625 -0.527344 6.460938 -0.617188 6.34375 -0.804688 L 5.179688 -2.667969 C 5.953125 -2.949219 6.414062 -3.5625 6.414062 -4.328125 Z M 2.65625 -6.148438 L 3.070312 -6.148438 C 4.183594 -6.148438 4.910156 -5.375 4.910156 -4.308594 C 4.910156 -3.363281 4.371094 -2.867188 3.453125 -2.867188 C 3.160156 -2.867188 2.886719 -2.90625 2.65625 -2.980469 Z M 2.65625 -6.148438 "/></g></g></g><g fill="#bc9c22" fill-opacity="1"><g transform="translate(40.354425, 64.511973)"><g><path d="M 0.496094 -6.375 C 0.496094 -6.253906 0.554688 -6.171875 0.695312 -6.128906 L 0.964844 -6.066406 C 1.117188 -6.023438 1.199219 -5.933594 1.199219 -5.792969 L 1.199219 -0.800781 C 1.199219 -0.660156 1.117188 -0.570312 0.964844 -0.527344 L 0.695312 -0.464844 C 0.554688 -0.425781 0.496094 -0.339844 0.496094 -0.222656 C 0.496094 -0.0859375 0.585938 0 0.785156 0 L 4.53125 0 C 4.859375 0 5.003906 0.175781 5.230469 0.175781 C 5.441406 0.175781 5.535156 0.0625 5.601562 -0.179688 L 6 -1.714844 C 6.054688 -1.894531 5.972656 -2.007812 5.8125 -2.035156 C 5.675781 -2.058594 5.5625 -2.011719 5.496094 -1.867188 C 4.988281 -0.703125 4.671875 -0.484375 4.03125 -0.484375 L 3.203125 -0.484375 C 2.839844 -0.484375 2.660156 -0.636719 2.660156 -0.957031 L 2.660156 -3.070312 L 3.75 -3.070312 C 4.167969 -3.070312 4.320312 -2.980469 4.574219 -2.542969 C 4.648438 -2.425781 4.765625 -2.386719 4.894531 -2.429688 C 5.027344 -2.472656 5.074219 -2.566406 5.03125 -2.730469 L 4.671875 -4.125 C 4.640625 -4.261719 4.558594 -4.34375 4.4375 -4.332031 C 4.316406 -4.324219 4.234375 -4.253906 4.195312 -4.097656 C 4.113281 -3.660156 3.996094 -3.546875 3.609375 -3.546875 L 2.660156 -3.546875 L 2.660156 -6.109375 L 3.890625 -6.109375 C 4.527344 -6.109375 4.808594 -5.941406 5.28125 -4.972656 C 5.359375 -4.8125 5.492188 -4.753906 5.652344 -4.800781 C 5.792969 -4.847656 5.851562 -4.957031 5.804688 -5.121094 L 5.425781 -6.433594 C 5.351562 -6.683594 5.265625 -6.78125 5.074219 -6.78125 C 4.820312 -6.78125 4.695312 -6.59375 4.355469 -6.59375 L 0.785156 -6.59375 C 0.585938 -6.59375 0.496094 -6.511719 0.496094 -6.375 Z M 0.496094 -6.375 "/></g></g></g><g fill="#bc9c22" fill-opacity="1"><g transform="translate(47.82022, 64.511973)"><g><path d="M 3.117188 0.144531 C 4.503906 0.144531 5.300781 -0.6875 5.304688 -1.71875 C 5.304688 -2.703125 4.796875 -3.308594 3.339844 -3.835938 C 2.007812 -4.320312 1.734375 -4.707031 1.734375 -5.238281 C 1.734375 -5.828125 2.132812 -6.226562 2.777344 -6.226562 C 3.5 -6.226562 4.226562 -5.839844 4.796875 -4.691406 C 4.875 -4.535156 4.992188 -4.476562 5.144531 -4.527344 C 5.289062 -4.574219 5.355469 -4.714844 5.308594 -4.882812 L 4.867188 -6.414062 C 4.796875 -6.660156 4.707031 -6.730469 4.5625 -6.730469 C 4.300781 -6.730469 4.300781 -6.367188 4.089844 -6.367188 C 3.847656 -6.367188 3.480469 -6.71875 2.628906 -6.71875 C 1.308594 -6.71875 0.441406 -5.941406 0.441406 -4.796875 C 0.441406 -3.714844 0.980469 -3.070312 2.40625 -2.605469 C 3.792969 -2.15625 4.066406 -1.800781 4.058594 -1.261719 C 4.058594 -0.707031 3.667969 -0.347656 3.027344 -0.347656 C 2.339844 -0.347656 1.679688 -0.703125 1.152344 -1.746094 C 1.070312 -1.914062 0.957031 -1.972656 0.804688 -1.917969 C 0.660156 -1.871094 0.597656 -1.765625 0.625 -1.625 L 0.945312 -0.105469 C 0.980469 0.0859375 1.070312 0.160156 1.199219 0.160156 C 1.441406 0.160156 1.496094 -0.210938 1.738281 -0.210938 C 1.914062 -0.210938 2.347656 0.144531 3.117188 0.144531 Z M 3.117188 0.144531 "/></g></g></g><g fill="#bc9c22" fill-opacity="1"><g transform="translate(54.791446, 64.511973)"><g><path d="M 0.496094 -6.375 C 0.496094 -6.253906 0.554688 -6.171875 0.695312 -6.128906 L 0.964844 -6.066406 C 1.117188 -6.023438 1.199219 -5.933594 1.199219 -5.792969 L 1.199219 -0.800781 C 1.199219 -0.660156 1.117188 -0.570312 0.964844 -0.527344 L 0.695312 -0.464844 C 0.554688 -0.425781 0.496094 -0.339844 0.496094 -0.222656 C 0.496094 -0.0859375 0.585938 0 0.785156 0 L 4.53125 0 C 4.859375 0 5.003906 0.175781 5.230469 0.175781 C 5.441406 0.175781 5.535156 0.0625 5.601562 -0.179688 L 6 -1.714844 C 6.054688 -1.894531 5.972656 -2.007812 5.8125 -2.035156 C 5.675781 -2.058594 5.5625 -2.011719 5.496094 -1.867188 C 4.988281 -0.703125 4.671875 -0.484375 4.03125 -0.484375 L 3.203125 -0.484375 C 2.839844 -0.484375 2.660156 -0.636719 2.660156 -0.957031 L 2.660156 -3.070312 L 3.75 -3.070312 C 4.167969 -3.070312 4.320312 -2.980469 4.574219 -2.542969 C 4.648438 -2.425781 4.765625 -2.386719 4.894531 -2.429688 C 5.027344 -2.472656 5.074219 -2.566406 5.03125 -2.730469 L 4.671875 -4.125 C 4.640625 -4.261719 4.558594 -4.34375 4.4375 -4.332031 C 4.316406 -4.324219 4.234375 -4.253906 4.195312 -4.097656 C 4.113281 -3.660156 3.996094 -3.546875 3.609375 -3.546875 L 2.660156 -3.546875 L 2.660156 -6.109375 L 3.890625 -6.109375 C 4.527344 -6.109375 4.808594 -5.941406 5.28125 -4.972656 C 5.359375 -4.8125 5.492188 -4.753906 5.652344 -4.800781 C 5.792969 -4.847656 5.851562 -4.957031 5.804688 -5.121094 L 5.425781 -6.433594 C 5.351562 -6.683594 5.265625 -6.78125 5.074219 -6.78125 C 4.820312 -6.78125 4.695312 -6.59375 4.355469 -6.59375 L 0.785156 -6.59375 C 0.585938 -6.59375 0.496094 -6.511719 0.496094 -6.375 Z M 0.496094 -6.375 "/></g></g></g><g fill="#bc9c22" fill-opacity="1"><g transform="translate(62.257242, 64.511973)"><g><path d="M 6.414062 -4.328125 C 6.414062 -5.65625 5.242188 -6.59375 3.128906 -6.59375 L 0.78125 -6.59375 C 0.585938 -6.59375 0.496094 -6.511719 0.496094 -6.375 C 0.496094 -6.253906 0.550781 -6.171875 0.691406 -6.128906 L 0.960938 -6.066406 C 1.117188 -6.023438 1.195312 -5.933594 1.195312 -5.792969 L 1.195312 -0.800781 C 1.195312 -0.660156 1.117188 -0.570312 0.960938 -0.527344 L 0.691406 -0.464844 C 0.550781 -0.425781 0.496094 -0.339844 0.496094 -0.222656 C 0.496094 -0.0859375 0.585938 0 0.78125 0 L 3.097656 0 C 3.300781 0 3.390625 -0.0859375 3.390625 -0.222656 C 3.390625 -0.339844 3.34375 -0.40625 3.1875 -0.464844 L 2.867188 -0.527344 C 2.722656 -0.574219 2.65625 -0.660156 2.65625 -0.800781 L 2.65625 -2.542969 C 2.953125 -2.445312 3.308594 -2.386719 3.699219 -2.386719 C 3.734375 -2.386719 3.773438 -2.386719 3.8125 -2.386719 L 4.777344 -0.734375 C 4.867188 -0.574219 4.851562 -0.5 4.71875 -0.4375 L 4.578125 -0.40625 C 4.484375 -0.359375 4.441406 -0.300781 4.441406 -0.222656 C 4.441406 -0.078125 4.535156 0 4.722656 0 L 6.730469 0 C 6.933594 0 7.027344 -0.0859375 7.027344 -0.222656 C 7.027344 -0.339844 6.972656 -0.410156 6.769531 -0.472656 C 6.5625 -0.527344 6.460938 -0.617188 6.34375 -0.804688 L 5.179688 -2.667969 C 5.953125 -2.949219 6.414062 -3.5625 6.414062 -4.328125 Z M 2.65625 -6.148438 L 3.070312 -6.148438 C 4.183594 -6.148438 4.910156 -5.375 4.910156 -4.308594 C 4.910156 -3.363281 4.371094 -2.867188 3.453125 -2.867188 C 3.160156 -2.867188 2.886719 -2.90625 2.65625 -2.980469 Z M 2.65625 -6.148438 "/></g></g></g><g fill="#bc9c22" fill-opacity="1"><g transform="translate(70.589708, 64.511973)"><g><path d="M 4.613281 -6.375 C 4.613281 -6.253906 4.6875 -6.199219 4.820312 -6.152344 L 5.09375 -6.089844 C 5.378906 -5.988281 5.425781 -5.832031 5.328125 -5.53125 L 3.875 -1.296875 L 2.371094 -5.667969 C 2.28125 -5.929688 2.316406 -6.03125 2.476562 -6.085938 L 2.785156 -6.148438 C 2.925781 -6.199219 2.992188 -6.261719 2.992188 -6.375 C 2.992188 -6.511719 2.902344 -6.59375 2.695312 -6.59375 L 0.449219 -6.59375 C 0.246094 -6.59375 0.144531 -6.511719 0.144531 -6.375 C 0.144531 -6.265625 0.207031 -6.191406 0.328125 -6.140625 L 0.511719 -6.082031 C 0.648438 -6.019531 0.71875 -5.953125 0.785156 -5.757812 L 2.507812 -0.832031 C 2.558594 -0.679688 2.59375 -0.558594 2.59375 -0.457031 L 2.59375 -0.246094 C 2.59375 -0.0859375 2.683594 0 2.832031 0 L 3.988281 0 C 4.132812 0 4.230469 -0.0859375 4.230469 -0.234375 L 4.230469 -0.453125 C 4.230469 -0.59375 4.257812 -0.707031 4.332031 -0.933594 L 5.886719 -5.488281 C 6.011719 -5.863281 6.125 -6.003906 6.320312 -6.085938 L 6.496094 -6.152344 C 6.644531 -6.214844 6.703125 -6.273438 6.703125 -6.378906 C 6.703125 -6.511719 6.609375 -6.59375 6.40625 -6.59375 L 4.910156 -6.59375 C 4.707031 -6.59375 4.613281 -6.511719 4.613281 -6.375 Z M 4.613281 -6.375 "/></g></g></g><g fill="#bc9c22" fill-opacity="1"><g transform="translate(78.616013, 64.511973)"><g><path d="M 0.496094 -6.375 C 0.496094 -6.253906 0.554688 -6.171875 0.695312 -6.128906 L 0.964844 -6.066406 C 1.117188 -6.023438 1.199219 -5.933594 1.199219 -5.792969 L 1.199219 -0.800781 C 1.199219 -0.660156 1.117188 -0.570312 0.964844 -0.527344 L 0.695312 -0.464844 C 0.554688 -0.425781 0.496094 -0.339844 0.496094 -0.222656 C 0.496094 -0.0859375 0.585938 0 0.785156 0 L 4.53125 0 C 4.859375 0 5.003906 0.175781 5.230469 0.175781 C 5.441406 0.175781 5.535156 0.0625 5.601562 -0.179688 L 6 -1.714844 C 6.054688 -1.894531 5.972656 -2.007812 5.8125 -2.035156 C 5.675781 -2.058594 5.5625 -2.011719 5.496094 -1.867188 C 4.988281 -0.703125 4.671875 -0.484375 4.03125 -0.484375 L 3.203125 -0.484375 C 2.839844 -0.484375 2.660156 -0.636719 2.660156 -0.957031 L 2.660156 -3.070312 L 3.75 -3.070312 C 4.167969 -3.070312 4.320312 -2.980469 4.574219 -2.542969 C 4.648438 -2.425781 4.765625 -2.386719 4.894531 -2.429688 C 5.027344 -2.472656 5.074219 -2.566406 5.03125 -2.730469 L 4.671875 -4.125 C 4.640625 -4.261719 4.558594 -4.34375 4.4375 -4.332031 C 4.316406 -4.324219 4.234375 -4.253906 4.195312 -4.097656 C 4.113281 -3.660156 3.996094 -3.546875 3.609375 -3.546875 L 2.660156 -3.546875 L 2.660156 -6.109375 L 3.890625 -6.109375 C 4.527344 -6.109375 4.808594 -5.941406 5.28125 -4.972656 C 5.359375 -4.8125 5.492188 -4.753906 5.652344 -4.800781 C 5.792969 -4.847656 5.851562 -4.957031 5.804688 -5.121094 L 5.425781 -6.433594 C 5.351562 -6.683594 5.265625 -6.78125 5.074219 -6.78125 C 4.820312 -6.78125 4.695312 -6.59375 4.355469 -6.59375 L 0.785156 -6.59375 C 0.585938 -6.59375 0.496094 -6.511719 0.496094 -6.375 Z M 0.496094 -6.375 "/></g></g></g><g fill="#7d673b" fill-opacity="1"><g transform="translate(20.11577, 52.045218)"><g><path d="M 17.058594 -18.371094 L 2.125 -18.371094 C 1.996094 -18.371094 1.890625 -18.265625 1.890625 -18.160156 L 1.890625 -7.425781 C 1.890625 -7.242188 1.914062 -5.457031 2.808594 -3.675781 C 4.066406 -1.128906 6.480469 0.261719 9.605469 0.261719 C 12.726562 0.261719 15.117188 -1.15625 16.402344 -3.675781 C 17.292969 -5.457031 17.320312 -7.242188 17.320312 -7.425781 L 17.320312 -18.160156 C 17.320312 -18.265625 17.214844 -18.371094 17.058594 -18.371094 Z M 13.226562 -5.144531 C 12.519531 -3.804688 11.335938 -3.148438 9.605469 -3.148438 C 7.871094 -3.148438 6.691406 -3.804688 5.984375 -5.144531 C 5.40625 -6.246094 5.378906 -7.425781 5.378906 -7.425781 L 5.378906 -15.222656 L 13.832031 -15.222656 L 13.832031 -7.453125 C 13.832031 -7.425781 13.804688 -6.246094 13.226562 -5.144531 Z M 13.226562 -5.144531 "/></g></g></g><g fill="#7d673b" fill-opacity="1"><g transform="translate(47.408597, 52.045218)"><g><path d="M 17.347656 -0.210938 L 17.347656 -18.160156 C 17.347656 -18.265625 17.242188 -18.371094 17.085938 -18.371094 L 14.117188 -18.371094 C 13.960938 -18.371094 13.855469 -18.265625 13.855469 -18.160156 L 13.855469 -6.195312 L 5.378906 -18.292969 C 5.355469 -18.34375 5.222656 -18.371094 5.171875 -18.371094 L 2.125 -18.371094 C 1.996094 -18.371094 1.890625 -18.265625 1.890625 -18.160156 L 1.890625 -0.210938 C 1.890625 -0.105469 1.996094 0 2.125 0 L 5.144531 0 C 5.300781 0 5.40625 -0.105469 5.40625 -0.210938 L 5.40625 -12.175781 L 13.855469 -0.078125 C 13.882812 -0.0273438 14.015625 0 14.066406 0 L 17.085938 0 C 17.242188 0 17.347656 -0.105469 17.347656 -0.210938 Z M 17.347656 -0.210938 "/></g></g></g><g fill="#7d673b" fill-opacity="1"><g transform="translate(74.753906, 52.045218)"><g><path d="M 8.214844 -4.882812 C 12.019531 -4.882812 15.140625 -7.976562 15.140625 -11.757812 C 15.140625 -15.511719 12.019531 -18.632812 8.214844 -18.632812 C 4.410156 -18.632812 1.285156 -15.511719 1.285156 -11.757812 C 1.285156 -7.976562 4.410156 -4.882812 8.214844 -4.882812 Z M 8.214844 -15.246094 C 10.128906 -15.246094 11.652344 -13.699219 11.652344 -11.757812 C 11.652344 -9.789062 10.128906 -8.265625 8.214844 -8.265625 C 6.324219 -8.265625 4.777344 -9.789062 4.777344 -11.757812 C 4.777344 -13.699219 6.324219 -15.246094 8.214844 -15.246094 Z M 14.328125 -0.210938 L 14.328125 -3.175781 C 14.328125 -3.28125 14.222656 -3.386719 14.066406 -3.386719 L 2.230469 -3.386719 C 2.074219 -3.386719 1.96875 -3.28125 1.96875 -3.175781 L 1.96875 -0.210938 C 1.96875 -0.105469 2.074219 0 2.230469 0 L 14.066406 0 C 14.222656 0 14.328125 -0.105469 14.328125 -0.210938 Z M 14.328125 -0.210938 "/></g></g></g><g clip-path="url(#a788b91988)"><path fill="#bc9c22" d="M 56.070312 17.613281 C 56.816406 14.675781 56.070312 11.445312 55.269531 9.25 L 55.039062 8.578125 L 54.351562 8.777344 C 50.121094 10.042969 47.496094 13.929688 47.496094 18.929688 C 47.496094 24.339844 50.605469 28.539062 55.234375 29.289062 L 56.371094 29.484375 L 56.085938 28.367188 C 55.074219 24.785156 55.070312 21.199219 56.070312 17.613281 Z M 54.621094 17.246094 C 53.671875 20.648438 53.582031 24.070312 54.351562 27.515625 C 51.101562 26.417969 48.992188 23.105469 48.992188 18.921875 C 48.992188 14.898438 50.929688 11.722656 54.113281 10.453125 C 54.636719 12.195312 55.210938 14.886719 54.621094 17.246094 Z M 54.621094 17.246094 " fill-opacity="1" fill-rule="nonzero"/></g><g clip-path="url(#9de95c5487)"><path fill="#bc9c22" d="M 65.4375 18.929688 C 65.4375 13.457031 62.289062 9.285156 57.601562 8.554688 L 56.355469 8.359375 L 56.78125 9.539062 C 57.527344 11.609375 58.273438 14.628906 57.601562 17.253906 C 56.566406 21.023438 56.566406 24.792969 57.601562 28.5625 L 57.789062 29.3125 L 58.535156 29.09375 C 62.78125 27.859375 65.4375 23.957031 65.4375 18.929688 Z M 58.84375 27.40625 C 58.085938 24.121094 58.15625 20.859375 59.058594 17.613281 C 59.542969 15.144531 59.390625 12.71875 58.597656 10.332031 C 61.832031 11.4375 63.925781 14.734375 63.925781 18.929688 C 63.941406 22.957031 62.003906 26.132812 58.84375 27.40625 Z M 58.84375 27.40625 " fill-opacity="1" fill-rule="nonzero"/></g><g clip-path="url(#cb2f9115a3)"><path fill="#bc9c22" d="M 46.898438 23.957031 C 46.71875 23.503906 46.574219 23.039062 46.457031 22.5625 C 46.148438 21.363281 45.996094 20.144531 46.003906 18.90625 C 45.988281 17.179688 46.292969 15.511719 46.921875 13.90625 L 47.191406 13.210938 L 46.503906 12.933594 C 42.039062 11.15625 35.746094 11.828125 35.484375 11.859375 L 34.886719 11.925781 L 34.820312 12.523438 C 34.582031 15.0625 34.644531 17.597656 35.007812 20.125 L 35.121094 20.753906 C 35.347656 22.09375 35.777344 23.371094 36.40625 24.578125 C 36.734375 25.230469 37.15625 25.820312 37.667969 26.34375 C 40.710938 29.371094 46.441406 29.828125 49.628906 29.828125 L 51.667969 29.828125 L 50.074219 28.539062 C 48.621094 27.289062 47.5625 25.761719 46.898438 23.957031 Z M 37.539062 23.488281 C 37.136719 22.613281 36.839844 21.699219 36.652344 20.753906 L 42.632812 20.753906 L 45.066406 23.160156 L 45.15625 23.488281 Z M 41.160156 19.257812 L 36.398438 19.257812 C 36.183594 17.609375 36.109375 15.953125 36.171875 14.292969 Z M 44.597656 20.574219 L 42.652344 18.636719 L 42.652344 13.496094 C 43.542969 13.625 44.414062 13.824219 45.269531 14.09375 C 44.757812 15.664062 44.507812 17.277344 44.523438 18.929688 C 44.515625 19.476562 44.542969 20.027344 44.597656 20.574219 Z M 41.160156 13.324219 L 41.160156 17.140625 L 37.257812 13.242188 C 38.558594 13.183594 39.859375 13.210938 41.160156 13.324219 Z M 38.746094 25.28125 C 38.648438 25.1875 38.5625 25.085938 38.484375 24.976562 L 45.710938 24.976562 C 46.21875 26.175781 46.894531 27.273438 47.734375 28.273438 C 44.785156 28.101562 40.890625 27.441406 38.746094 25.289062 Z M 38.746094 25.28125 " fill-opacity="1" fill-rule="nonzero"/></g><g clip-path="url(#fa60a9d5c0)"><path fill="#bc9c22" d="M 78.105469 12.523438 L 78.03125 11.925781 L 77.441406 11.859375 C 77.171875 11.859375 70.882812 11.164062 66.414062 12.957031 L 65.726562 13.234375 L 66.003906 13.929688 C 66.628906 15.535156 66.933594 17.203125 66.921875 18.929688 C 66.925781 20.160156 66.777344 21.367188 66.476562 22.5625 C 66.359375 23.03125 66.210938 23.492188 66.027344 23.945312 C 65.371094 25.753906 64.308594 27.285156 62.851562 28.539062 L 61.289062 29.828125 L 63.335938 29.828125 C 66.480469 29.828125 72.222656 29.371094 75.25 26.351562 C 75.765625 25.824219 76.195312 25.238281 76.535156 24.585938 C 77.164062 23.375 77.589844 22.097656 77.820312 20.753906 L 77.941406 20.125 C 78.304688 17.597656 78.359375 15.0625 78.105469 12.523438 Z M 76.535156 19.25 L 71.765625 19.25 L 76.730469 14.285156 C 76.800781 15.949219 76.734375 17.605469 76.535156 19.257812 Z M 75.390625 23.480469 L 67.769531 23.480469 C 67.769531 23.367188 67.835938 23.265625 67.863281 23.152344 L 70.273438 20.746094 L 76.25 20.746094 C 76.074219 21.695312 75.789062 22.609375 75.390625 23.488281 Z M 75.667969 13.234375 L 71.765625 17.132812 L 71.765625 13.324219 C 73.066406 13.21875 74.367188 13.191406 75.667969 13.242188 Z M 70.273438 13.488281 L 70.273438 18.628906 L 68.3125 20.574219 C 68.367188 20.035156 68.402344 19.480469 68.402344 18.929688 C 68.417969 17.277344 68.167969 15.664062 67.65625 14.09375 C 68.511719 13.824219 69.382812 13.621094 70.273438 13.496094 Z M 65.195312 28.277344 C 66.039062 27.28125 66.714844 26.183594 67.222656 24.984375 L 74.449219 24.984375 C 74.359375 25.085938 74.277344 25.199219 74.1875 25.289062 C 72.050781 27.441406 68.148438 28.101562 65.195312 28.277344 Z M 65.195312 28.277344 " fill-opacity="1" fill-rule="nonzero"/></g></svg>